<?xml version="1.0" encoding="UTF-8"?>
<svg id="Layer_1" data-name="Layer 1" xmlns="http://www.w3.org/2000/svg" version="1.1" viewBox="0 0 140 140">
  <defs>
    <style>
      .cls-1 {
        fill: #f4f4f4;
      }

      .cls-1, .cls-2 {
        stroke-width: 0px;
      }

      .cls-2 {
        fill: #0f0f0f;
      }
    </style>
  </defs>
  <circle class="cls-2" cx="70" cy="70" r="64.5"/>
  <path class="cls-1" d="M78.7,56.2c-2.9,0-5.7.6-8.2,1.6.1-.8.2-1.6.2-2.5,0-1.3-1.1-2.4-2.4-2.4s-2.4,1.1-2.4,2.4c0,6-4.9,10.9-10.9,10.9s-10.9-4.9-10.9-10.9,4.9-10.9,10.9-10.9,2.4-1.1,2.4-2.4-1.1-2.4-2.4-2.4c-8.7,0-15.7,7.1-15.7,15.7s7.1,15.7,15.7,15.7,2,0,3-.3c-.9,2.4-1.3,4.9-1.3,7.6s1.1,2.4,2.4,2.4,2.4-1.1,2.4-2.4c0-9.5,7.8-17.3,17.3-17.3s17.3,7.8,17.3,17.3-7.8,17.3-17.3,17.3-2.4,1.1-2.4,2.4,1.1,2.4,2.4,2.4c12.2,0,22.1-9.9,22.1-22.1s-9.9-22.1-22.1-22.1Z"/>
</svg>